<svg xmlns="http://www.w3.org/2000/svg" xmlns:xlink="http://www.w3.org/1999/xlink" width="512" zoomAndPan="magnify" viewBox="0 0 384 383.999986" height="512" preserveAspectRatio="xMidYMid meet" version="1.2"><defs><clipPath id="d93c6acba7"><path d="M 14.691406 286 L 270 286 L 270 351 L 14.691406 351 Z M 14.691406 286 "/></clipPath><clipPath id="20f9eb73ef"><path d="M 207 121 L 369.441406 121 L 369.441406 377.402344 L 207 377.402344 Z M 207 121 "/></clipPath><clipPath id="63a9c36d2a"><path d="M 79 6.902344 L 254 6.902344 L 254 276 L 79 276 Z M 79 6.902344 "/></clipPath><clipPath id="ed03f98b27"><path d="M 126.074219 294.371094 L 172.386719 294.371094 L 172.386719 340.683594 L 126.074219 340.683594 Z M 126.074219 294.371094 "/></clipPath><clipPath id="c48b5dda4c"><path d="M 149.230469 294.371094 C 136.441406 294.371094 126.074219 304.738281 126.074219 317.527344 C 126.074219 330.316406 136.441406 340.683594 149.230469 340.683594 C 162.019531 340.683594 172.386719 330.316406 172.386719 317.527344 C 172.386719 304.738281 162.019531 294.371094 149.230469 294.371094 Z M 149.230469 294.371094 "/></clipPath><clipPath id="aa7bbb4108"><path d="M 0.0742188 0.371094 L 46.386719 0.371094 L 46.386719 46.683594 L 0.0742188 46.683594 Z M 0.0742188 0.371094 "/></clipPath><clipPath id="3cc6357473"><path d="M 23.230469 0.371094 C 10.441406 0.371094 0.0742188 10.738281 0.0742188 23.527344 C 0.0742188 36.316406 10.441406 46.683594 23.230469 46.683594 C 36.019531 46.683594 46.386719 36.316406 46.386719 23.527344 C 46.386719 10.738281 36.019531 0.371094 23.230469 0.371094 Z M 23.230469 0.371094 "/></clipPath><clipPath id="5927a82b91"><rect x="0" width="47" y="0" height="47"/></clipPath></defs><g id="c1aae73a6e"><g clip-rule="nonzero" clip-path="url(#d93c6acba7)"><path style=" stroke:none;fill-rule:evenodd;fill:#f59e0b;fill-opacity:1;" d="M 46.773438 286.542969 L 238.828125 286.542969 L 269.238281 350.296875 L 14.761719 350.296875 L 46.773438 286.542969 "/></g><g clip-rule="nonzero" clip-path="url(#20f9eb73ef)"><path style=" stroke:none;fill-rule:evenodd;fill:#f59e0b;fill-opacity:1;" d="M 344.457031 322.765625 L 369.269531 377.101562 L 294.042969 377.101562 L 207.621094 195.261719 L 245.230469 121.363281 L 344.457031 322.765625 "/></g><g clip-rule="nonzero" clip-path="url(#63a9c36d2a)"><path style=" stroke:none;fill-rule:evenodd;fill:#f59e0b;fill-opacity:1;" d="M 168.410156 248.871094 L 155.605469 275.675781 L 79.582031 275.675781 L 216.421875 6.898438 L 253.234375 82.242188 L 168.410156 248.871094 "/></g><g clip-rule="nonzero" clip-path="url(#ed03f98b27)"><g clip-rule="nonzero" clip-path="url(#c48b5dda4c)"><g transform="matrix(1,0,0,1,126,294)"><g clip-path="url(#5927a82b91)"><g clip-rule="nonzero" clip-path="url(#aa7bbb4108)"><g clip-rule="nonzero" clip-path="url(#3cc6357473)"><path style=" stroke:none;fill-rule:nonzero;fill:#f59e0b;fill-opacity:1;" d="M 0.0742188 0.371094 L 46.386719 0.371094 L 46.386719 46.683594 L 0.0742188 46.683594 Z M 0.0742188 0.371094 "/></g></g></g></g></g></g></g></svg>
